<?xml version="1.0" encoding="UTF-8"?>
<svg xmlns="http://www.w3.org/2000/svg" width="360" height="260" viewBox="0 0 360 260">
  <rect width="100%" height="100%" fill="transparent" />
  <g fill="#0f172a">
    <rect x="80" y="20" width="200" height="220" rx="8" />
  </g>
  <g fill="#7dd3fc" opacity="0.95">
    <!-- many narrow windows -->
    <g>
      <rect x="98" y="36" width="16" height="12" rx="1" />
      <rect x="122" y="36" width="16" height="12" rx="1" />
      <rect x="146" y="36" width="16" height="12" rx="1" />
      <rect x="170" y="36" width="16" height="12" rx="1" />
      <rect x="194" y="36" width="16" height="12" rx="1" />
    </g>
    <!-- repeat downwards -->
    <g transform="translate(0,30)">
      <rect x="98" y="36" width="16" height="12" rx="1" />
      <rect x="122" y="36" width="16" height="12" rx="1" />
      <rect x="146" y="36" width="16" height="12" rx="1" />
      <rect x="170" y="36" width="16" height="12" rx="1" />
      <rect x="194" y="36" width="16" height="12" rx="1" />
    </g>
  </g>
  <rect x="0" y="238" width="360" height="12" fill="#020617" opacity="0.6" />
</svg>